<svg width="48" height="48" viewBox="0 0 48 48" fill="none" xmlns="http://www.w3.org/2000/svg">
<path fill-rule="evenodd" clip-rule="evenodd" d="M7.87414 8.72363C7.69325 8.77716 7.54604 8.87657 7.41521 9.05204C6.96719 9.65293 6.96208 10.533 7.39004 11.9249C7.59607 12.5951 7.87616 13.3043 8.17857 14.0699C8.47548 14.8215 8.79253 15.6243 9.04136 16.4256C9.96234 19.3913 10.9195 21.215 11.8618 22.6818C12.0454 22.9675 12.06 23.3301 11.9001 23.6296C10.8122 25.6672 10.4056 27.6709 10.635 29.6624C10.7892 31.0001 11.2341 32.3638 11.9906 33.7548C12.0914 33.1006 12.1937 32.5595 12.2982 32.1357C12.5198 31.2372 12.9391 30.1007 13.5346 28.7433C13.679 28.4142 13.999 28.1966 14.3581 28.1834C14.7173 28.1701 15.0524 28.3635 15.2207 28.6811L17.802 33.553C18.0443 34.0103 17.87 34.5774 17.4127 34.8197C16.9554 35.062 16.3883 34.8877 16.146 34.4304L14.5068 31.3365C14.3338 31.816 14.2049 32.2313 14.1178 32.5844C13.9311 33.3414 13.7324 34.6358 13.5278 36.5055C13.486 36.8873 13.2153 37.205 12.8449 37.307C12.4746 37.4089 12.0795 37.2744 11.8482 36.9677C10.0986 34.6479 9.05049 32.2826 8.77328 29.8769C8.51456 27.6317 8.93462 25.4123 9.99702 23.2359C9.06202 21.7105 8.13311 19.8201 7.25159 16.9813C7.02718 16.2587 6.73699 15.5215 6.43556 14.7584L6.42127 14.7222C6.1297 13.9841 5.82657 13.2168 5.59871 12.4757C5.15144 11.0209 4.87834 9.31923 5.91279 7.93183C6.27612 7.44453 6.75841 7.09939 7.34237 6.92659C7.91154 6.75816 8.52391 6.76863 9.14486 6.89462C10.2652 7.12194 11.5618 7.75639 13.0112 8.71311C16.1029 7.68845 19.3624 7.75162 22.7553 8.86202C26.1003 9.95671 28.8415 11.7314 30.9465 14.1953C33.0845 13.8384 35.1149 14.013 37.0163 14.7435C39.078 15.5357 40.931 16.9593 42.5848 18.9571C42.821 19.2425 42.8669 19.6404 42.7018 19.9721C42.5367 20.3038 42.1917 20.5071 41.8215 20.4907C40.2667 20.4218 38.7357 21.086 37.2201 22.6983C38.1124 23.7914 38.7719 24.6277 39.1917 25.2006C39.4976 25.6181 39.4072 26.2045 38.9897 26.5103C38.5723 26.8162 37.9859 26.7258 37.68 26.3084C37.2181 25.678 36.4177 24.6697 35.2674 23.2726C34.982 22.9259 34.9826 22.4254 35.269 22.0794C36.6633 20.3952 38.2134 19.2737 39.9148 18.8281C38.7797 17.7419 37.5883 16.9709 36.3441 16.4929C34.649 15.8416 32.7992 15.712 30.7672 16.1354C30.4212 16.2075 30.0641 16.0788 29.8437 15.8026C27.9446 13.423 25.4004 11.6995 22.1724 10.6431C18.9653 9.59357 15.9881 9.60547 13.201 10.6319C12.9158 10.7369 12.5973 10.6971 12.3467 10.525C10.8031 9.46488 9.62171 8.90363 8.77221 8.73127C8.35763 8.64715 8.06981 8.66573 7.87414 8.72363Z" fill="#2563eb"/>
<path fill-rule="evenodd" clip-rule="evenodd" d="M19.9583 30.9653C19.9583 29.251 21.348 27.8613 23.0623 27.8613C24.7765 27.8613 26.1662 29.251 26.1662 30.9653V31.0173C26.1662 31.5348 25.7467 31.9543 25.2292 31.9543C24.7117 31.9543 24.2922 31.5348 24.2922 31.0173V30.9653C24.2922 30.286 23.7415 29.7354 23.0623 29.7354C22.383 29.7354 21.8324 30.286 21.8324 30.9653V32.2682C21.8324 32.9474 22.383 33.498 23.0623 33.498C24.7765 33.498 26.1662 34.8877 26.1662 36.602V37.9049C26.1662 39.6191 24.7765 41.0088 23.0623 41.0088H22.9955C21.3181 41.0088 19.9583 39.6491 19.9583 37.9717C19.9583 37.4542 20.3779 37.0347 20.8954 37.0347C21.4129 37.0347 21.8324 37.4542 21.8324 37.9717C21.8324 38.614 22.3531 39.1348 22.9955 39.1348H23.0623C23.7415 39.1348 24.2922 38.5841 24.2922 37.9049V36.602C24.2922 35.9227 23.7415 35.3721 23.0623 35.3721C21.348 35.3721 19.9583 33.9824 19.9583 32.2682V30.9653Z" fill="#2563eb"/>
<path fill-rule="evenodd" clip-rule="evenodd" d="M31.2579 29.7354C30.4217 29.7354 29.7438 30.4133 29.7438 31.2495V37.6206C29.7438 38.4569 30.4217 39.1348 31.2579 39.1348C32.0942 39.1348 32.7721 38.4569 32.7721 37.6206V31.2495C32.7721 30.4133 32.0942 29.7354 31.2579 29.7354ZM31.2579 27.8613C33.1292 27.8613 34.6461 29.3783 34.6461 31.2495V37.6206C34.6461 39.4919 33.1292 41.0088 31.2579 41.0088C29.3867 41.0088 27.8697 39.4919 27.8697 37.6206V31.2495C27.8697 29.3783 29.3867 27.8613 31.2579 27.8613Z" fill="#2563eb"/>
<path fill-rule="evenodd" clip-rule="evenodd" d="M38.253 28.1826C38.7706 28.1826 39.1901 28.6021 39.1901 29.1197V38.8135H41.5409C42.0584 38.8135 42.478 39.2331 42.478 39.7506C42.478 40.2681 42.0584 40.6876 41.5409 40.6876H38.253C37.7355 40.6876 37.316 40.2681 37.316 39.7506V29.1197C37.316 28.6021 37.7355 28.1826 38.253 28.1826Z" fill="#2563eb"/>
<path fill-rule="evenodd" clip-rule="evenodd" d="M31.7563 36.4243C32.1411 36.0783 32.7336 36.1098 33.0796 36.4947L35.7323 39.4453C36.0783 39.8301 36.0468 40.4226 35.6619 40.7686C35.2771 41.1146 34.6846 41.0831 34.3386 40.6982L31.6859 37.7476C31.3399 37.3628 31.3714 36.7703 31.7563 36.4243Z" fill="#2563eb"/>
<path fill-rule="evenodd" clip-rule="evenodd" d="M15.2732 13.6504C15.7907 13.6504 16.2102 14.0699 16.2102 14.5874V15.0311C16.2102 15.5486 15.7907 15.9682 15.2732 15.9682C14.7556 15.9682 14.3361 15.5486 14.3361 15.0311V14.5874C14.3361 14.0699 14.7556 13.6504 15.2732 13.6504Z" fill="#2563eb"/>
</svg>
