<svg width="48" height="48" viewBox="0 0 48 48" fill="none" xmlns="http://www.w3.org/2000/svg">
<path fill-rule="evenodd" clip-rule="evenodd" d="M15.5472 7.75407H21.6464C22.1684 7.75407 22.5915 8.17722 22.5915 8.6992C22.5915 9.22118 22.1684 9.64434 21.6464 9.64434H15.5193C12.4186 9.583 10.6869 10.3983 9.86056 11.7301C9.5142 12.2884 9.17873 12.8837 8.85441 13.5165C7.6959 15.7813 7.09111 18.2886 7.09028 20.8324C7.09028 20.8323 7.09028 20.8325 7.09028 20.8324V34.6745C7.09028 35.9859 7.61124 37.2436 8.53856 38.1709C9.46588 39.0983 10.7236 39.6192 12.035 39.6192H15.2284V36.3811H12.5191C11.9971 36.3811 11.574 35.958 11.574 35.436V29.6782C11.574 26.5858 13.0923 23.6905 15.6361 21.9322C15.6635 21.9133 15.6918 21.8959 15.721 21.8799L18.4166 20.4095C18.8749 20.1596 19.449 20.3284 19.6989 20.7867C19.9489 21.2449 19.7801 21.819 19.3218 22.069L16.6712 23.5148C14.662 24.9227 13.4642 27.2227 13.4642 29.6782V34.4908H16.1735C16.6955 34.4908 17.1187 34.914 17.1187 35.436V40.5644C17.1187 41.0863 16.6955 41.5095 16.1735 41.5095H12.035C10.2223 41.5095 8.48375 40.7894 7.20194 39.5076C5.92013 38.2258 5.20001 36.4872 5.20001 34.6745V20.8324C5.20089 17.9892 5.87684 15.1867 7.17153 12.6557C7.51774 11.9801 7.8788 11.3388 8.25433 10.7336C9.60123 8.56268 12.1863 7.68932 15.5472 7.75407Z" fill="#2563eb"/>
<path fill-rule="evenodd" clip-rule="evenodd" d="M24.4629 6.842C24.8149 6.73352 25.1979 6.83943 25.4441 7.11336L29.642 11.783C29.8127 11.973 29.8993 12.2239 29.8821 12.4787C29.5677 17.1202 28.6541 20.611 26.9823 22.7421C25.3093 24.8747 22.618 26.2832 19.0749 27.0734C18.795 27.1358 18.5019 27.0677 18.2781 26.8884C18.0543 26.709 17.9241 26.4377 17.9241 26.1509V16.1462C17.9241 15.6242 18.3472 15.2011 18.8692 15.2011C19.3912 15.2011 19.8143 15.6242 19.8143 16.1462V24.9389C22.4922 24.1826 24.3481 23.0374 25.4951 21.5754C26.7627 19.9596 27.6353 17.0809 27.9675 12.7478L24.4423 8.82636L21.9247 9.60223C21.4259 9.75596 20.8969 9.4762 20.7432 8.97737C20.5894 8.47854 20.8692 7.94954 21.368 7.7958L24.4629 6.842Z" fill="#2563eb"/>
<path fill-rule="evenodd" clip-rule="evenodd" d="M26.6317 10.7957C26.6317 10.2737 27.0548 9.85059 27.5768 9.85059H28.9391C28.9818 9.85059 29.0245 9.85349 29.0669 9.85926C32.3118 10.3021 34.8972 10.8662 36.7894 11.5674C38.6221 12.2466 40.0534 13.1433 40.5977 14.4244C41.4407 16.4088 41.7938 19.7054 41.7572 24.163C41.753 24.6849 41.3264 25.1046 40.8044 25.1003C40.2824 25.096 39.8628 24.6694 39.867 24.1474C39.9036 19.6987 39.5338 16.7544 38.8579 15.1635C38.6427 14.657 37.8961 13.9935 36.1326 13.3399C34.4399 12.7126 32.0316 12.1744 28.8747 11.7409H27.5768C27.0548 11.7409 26.6317 11.3177 26.6317 10.7957Z" fill="#2563eb"/>
<path fill-rule="evenodd" clip-rule="evenodd" d="M20.0859 31.379C20.0859 29.65 21.4876 28.2483 23.2166 28.2483C24.9457 28.2483 26.3474 29.65 26.3474 31.379V31.4315C26.3474 31.9535 25.9242 32.3766 25.4023 32.3766C24.8803 32.3766 24.4571 31.9535 24.4571 31.4315V31.379C24.4571 30.6939 23.9017 30.1386 23.2166 30.1386C22.5315 30.1386 21.9761 30.6939 21.9761 31.379V32.6932C21.9761 33.3783 22.5315 33.9337 23.2166 33.9337C24.9457 33.9337 26.3474 35.3354 26.3474 37.0645V38.3786C26.3474 40.1077 24.9457 41.5094 23.2166 41.5094H23.1492C21.4574 41.5094 20.0859 40.1379 20.0859 38.446C20.0859 37.924 20.509 37.5009 21.031 37.5009C21.553 37.5009 21.9761 37.924 21.9761 38.446C21.9761 39.0939 22.5014 39.6191 23.1492 39.6191H23.2166C23.9017 39.6191 24.4571 39.0637 24.4571 38.3786V37.0645C24.4571 36.3793 23.9017 35.824 23.2166 35.824C21.4876 35.824 20.0859 34.4223 20.0859 32.6932V31.379Z" fill="#2563eb"/>
<path fill-rule="evenodd" clip-rule="evenodd" d="M31.4831 30.1386C30.6396 30.1386 29.9559 30.8223 29.9559 31.6658V38.0919C29.9559 38.9354 30.6396 39.6191 31.4831 39.6191C32.3265 39.6191 33.0103 38.9354 33.0103 38.0919V31.6658C33.0103 30.8223 32.3265 30.1386 31.4831 30.1386ZM31.4831 28.2483C33.3705 28.2483 34.9005 29.7783 34.9005 31.6658V38.0919C34.9005 39.9793 33.3705 41.5094 31.4831 41.5094C29.5957 41.5094 28.0656 39.9793 28.0656 38.0919V31.6658C28.0656 29.7783 29.5957 28.2483 31.4831 28.2483Z" fill="#2563eb"/>
<path fill-rule="evenodd" clip-rule="evenodd" d="M38.5386 28.5723C39.0606 28.5723 39.4838 28.9954 39.4838 29.5174V39.295H41.8549C42.3769 39.295 42.8 39.7182 42.8 40.2402C42.8 40.7621 42.3769 41.1853 41.8549 41.1853H38.5386C38.0167 41.1853 37.5935 40.7621 37.5935 40.2402V29.5174C37.5935 28.9954 38.0167 28.5723 38.5386 28.5723Z" fill="#2563eb"/>
<path fill-rule="evenodd" clip-rule="evenodd" d="M31.9857 36.8851C32.3739 36.5361 32.9715 36.5679 33.3205 36.9561L35.9961 39.9322C36.3451 40.3204 36.3133 40.9179 35.9251 41.2669C35.537 41.6159 34.9394 41.5841 34.5904 41.1959L31.9148 38.2198C31.5658 37.8317 31.5976 37.2341 31.9857 36.8851Z" fill="#2563eb"/>
<path fill-rule="evenodd" clip-rule="evenodd" d="M11.9067 15.5554C12.4287 15.5554 12.8519 15.9786 12.8519 16.5006V16.9481C12.8519 17.4701 12.4287 17.8932 11.9067 17.8932C11.3848 17.8932 10.9616 17.4701 10.9616 16.9481V16.5006C10.9616 15.9786 11.3848 15.5554 11.9067 15.5554Z" fill="#2563eb"/>
</svg>
