<svg width="48" height="48" viewBox="0 0 48 48" fill="none" xmlns="http://www.w3.org/2000/svg">
<path fill-rule="evenodd" clip-rule="evenodd" d="M8.91707 36.4072C9.42356 36.4072 9.83415 36.8178 9.83415 37.3243C9.83415 37.4254 9.92865 37.756 10.6309 38.246C11.2898 38.7057 12.2999 39.1701 13.6223 39.5829C16.2559 40.4049 19.9443 40.9658 24.0488 40.9658C28.1533 40.9658 31.8416 40.4049 34.4753 39.5829C35.7977 39.1701 36.8077 38.7057 37.4666 38.246C38.1689 37.756 38.2634 37.4254 38.2634 37.3243C38.2634 36.8178 38.674 36.4072 39.1805 36.4072C39.687 36.4072 40.0976 36.8178 40.0976 37.3243C40.0976 38.3628 39.3452 39.1718 38.5161 39.7502C37.6436 40.3589 36.4377 40.8917 35.0218 41.3337C32.1788 42.2211 28.3013 42.7999 24.0488 42.7999C19.7963 42.7999 15.9188 42.2211 13.0758 41.3337C11.6599 40.8917 10.454 40.3589 9.58147 39.7502C8.75233 39.1718 8 38.3628 8 37.3243C8 36.8178 8.41059 36.4072 8.91707 36.4072Z" fill="#2563eb"/>
<path fill-rule="evenodd" clip-rule="evenodd" d="M8.91707 28.5852C9.42356 28.5852 9.83415 28.9958 9.83415 29.5023C9.83415 29.5864 9.9082 29.8898 10.6032 30.3379C11.2571 30.7595 12.2641 31.1739 13.5903 31.5356C16.2297 32.2555 19.9277 32.712 24.0488 32.712C28.1699 32.712 31.8678 32.2555 34.5072 31.5356C35.8335 31.1739 36.8405 30.7595 37.4944 30.3379C38.1894 29.8898 38.2634 29.5864 38.2634 29.5023C38.2634 28.9958 38.674 28.5852 39.1805 28.5852C39.687 28.5852 40.0976 28.9958 40.0976 29.5023C40.0976 30.5577 39.3248 31.34 38.4883 31.8794C37.6108 32.4452 36.4018 32.92 34.9898 33.3051C32.1526 34.0789 28.2847 34.5462 24.0488 34.5462C19.8129 34.5462 15.945 34.0789 13.1077 33.3051C11.6957 32.92 10.4867 32.4452 9.60922 31.8794C8.77278 31.34 8 30.5577 8 29.5023C8 28.9958 8.41059 28.5852 8.91707 28.5852Z" fill="#2563eb"/>
<path fill-rule="evenodd" clip-rule="evenodd" d="M8.91707 21.7073C9.42356 21.7073 9.83415 22.1179 9.83415 22.6243V26.9129C9.83415 27.4194 9.42356 27.83 8.91707 27.83C8.41059 27.83 8 27.4194 8 26.9129V22.6243C8 22.1179 8.41059 21.7073 8.91707 21.7073Z" fill="#2563eb"/>
<path fill-rule="evenodd" clip-rule="evenodd" d="M39.1805 21.7073C39.687 21.7073 40.0976 22.1179 40.0976 22.6243V26.9129C40.0976 27.4194 39.687 27.83 39.1805 27.83C38.674 27.83 38.2634 27.4194 38.2634 26.9129V22.6243C38.2634 22.1179 38.674 21.7073 39.1805 21.7073Z" fill="#2563eb"/>
<path fill-rule="evenodd" clip-rule="evenodd" d="M8.91707 18.9561C9.42356 18.9561 9.83415 19.3666 9.83415 19.8731C9.83415 19.9573 9.9082 20.2606 10.6032 20.7087C11.2571 21.1304 12.2641 21.5448 13.5903 21.9065C16.2297 22.6263 19.9277 23.0829 24.0488 23.0829C28.1699 23.0829 31.8678 22.6263 34.5072 21.9065C35.8335 21.5448 36.8405 21.1304 37.4944 20.7087C38.1894 20.2606 38.2634 19.9573 38.2634 19.8731C38.2634 19.3666 38.674 18.9561 39.1805 18.9561C39.687 18.9561 40.0976 19.3666 40.0976 19.8731C40.0976 20.9286 39.3248 21.7109 38.4883 22.2502C37.6108 22.816 36.4018 23.2909 34.9898 23.676C32.1526 24.4498 28.2847 24.917 24.0488 24.917C19.8129 24.917 15.945 24.4498 13.1077 23.676C11.6957 23.2909 10.4867 22.816 9.60922 22.2502C8.77278 21.7109 8 20.9286 8 19.8731C8 19.3666 8.41059 18.9561 8.91707 18.9561Z" fill="#2563eb"/>
<path fill-rule="evenodd" clip-rule="evenodd" d="M10.6575 9.79045C9.99084 10.292 9.83415 10.6871 9.83415 10.9317C9.83415 11.1762 9.99084 11.5714 10.6575 12.0729C11.3085 12.5626 12.3088 13.0428 13.6271 13.4622C16.2532 14.2978 19.9379 14.8292 24.0488 14.8292C28.1596 14.8292 31.8444 14.2978 34.4705 13.4622C35.7888 13.0428 36.789 12.5626 37.4401 12.0729C38.1067 11.5714 38.2634 11.1762 38.2634 10.9317C38.2634 10.6871 38.1067 10.292 37.4401 9.79045C36.789 9.30069 35.7888 8.82057 34.4705 8.4011C31.8444 7.56553 28.1596 7.0341 24.0488 7.0341C19.9379 7.0341 16.2532 7.56553 13.6271 8.4011C12.3088 8.82057 11.3085 9.30069 10.6575 9.79045ZM13.071 6.6533C15.9215 5.74631 19.8026 5.19995 24.0488 5.19995C28.295 5.19995 32.176 5.74631 35.0266 6.6533C36.4466 7.10511 37.6623 7.66245 38.5427 8.32473C39.4074 8.97524 40.0976 9.84672 40.0976 10.9317C40.0976 12.0166 39.4074 12.8881 38.5427 13.5386C37.6623 14.2009 36.4466 14.7582 35.0266 15.21C32.176 16.117 28.295 16.6634 24.0488 16.6634C19.8026 16.6634 15.9215 16.117 13.071 15.21C11.651 14.7582 10.4353 14.2009 9.55489 13.5386C8.69015 12.8881 8 12.0166 8 10.9317C8 9.84672 8.69015 8.97524 9.55489 8.32473C10.4353 7.66245 11.651 7.10511 13.071 6.6533Z" fill="#2563eb"/>
<path fill-rule="evenodd" clip-rule="evenodd" d="M8.91707 9.8042C9.42356 9.8042 9.83415 10.2148 9.83415 10.7213V37.3244C9.83415 37.8309 9.42356 38.2415 8.91707 38.2415C8.41059 38.2415 8 37.8309 8 37.3244V10.7213C8 10.2148 8.41059 9.8042 8.91707 9.8042Z" fill="#2563eb"/>
<path fill-rule="evenodd" clip-rule="evenodd" d="M39.1805 9.8042C39.687 9.8042 40.0976 10.2148 40.0976 10.7213V37.3244C40.0976 37.8309 39.687 38.2415 39.1805 38.2415C38.674 38.2415 38.2634 37.8309 38.2634 37.3244V10.7213C38.2634 10.2148 38.674 9.8042 39.1805 9.8042Z" fill="#2563eb"/>
</svg>
